/* XPM */
static char *_e898806d62d4e7acc9e935e110b92c4X6frN5HuU1lH0LQW[] = {
/* columns rows colors chars-per-pixel */
"50 50 220 2 ",
"   c #230600",
".  c #2C0500",
"X  c #250D00",
"o  c #2C0C00",
"O  c #340D00",
"+  c #3A0D00",
"@  c #300600",
"#  c #2D1301",
"$  c #26180D",
"%  c #2B1708",
"&  c #321401",
"*  c #3B1201",
"=  c #341904",
"-  c #3E1902",
";  c #331609",
":  c #321B0D",
">  c #3D1E0D",
",  c #2C1B13",
"<  c #2D191A",
"1  c #331D11",
"2  c #3B1E15",
"3  c #3C240E",
"4  c #35200F",
"5  c #3E2313",
"6  c #3E2318",
"7  c #372018",
"8  c #3C2723",
"9  c #451C06",
"0  c #451D0A",
"q  c #4A1E0A",
"w  c #461902",
"e  c #501A00",
"r  c #4D2107",
"t  c #43220E",
"y  c #4A220B",
"u  c #4E290F",
"i  c #452204",
"p  c #532205",
"a  c #54260C",
"s  c #59260D",
"d  c #5C2A0E",
"f  c #52280F",
"g  c #422513",
"h  c #4B2612",
"j  c #4C2C14",
"k  c #432519",
"l  c #48261B",
"z  c #4C2C1A",
"x  c #5A2611",
"c  c #532B13",
"v  c #5B2C14",
"b  c #5C2E19",
"n  c #542A17",
"m  c #5A3410",
"M  c #6C300E",
"N  c #622C14",
"B  c #632611",
"V  c #613215",
"C  c #6D3A1D",
"Z  c #69361C",
"A  c #763A1E",
"S  c #713513",
"D  c #4C3526",
"F  c #5A3C2B",
"G  c #4B3A30",
"H  c #633723",
"J  c #653A24",
"K  c #6A3A23",
"L  c #693A27",
"P  c #753E23",
"I  c #763F2A",
"U  c #793E27",
"Y  c #66451A",
"T  c #5D4B36",
"R  c #6D4129",
"E  c #6B4123",
"W  c #754025",
"Q  c #7B4326",
"!  c #73422A",
"~  c #7D452B",
"^  c #7D492E",
"/  c #634B3A",
"(  c #7E4A32",
")  c #794831",
"_  c #77573E",
"`  c #853E19",
"'  c #8A3D19",
"]  c #8C441D",
"[  c #85421D",
"{  c #91451E",
"}  c #94491C",
"|  c #9B4C1D",
" . c #99461E",
".. c #A54B1E",
"X. c #A94E1F",
"o. c #844222",
"O. c #8D4423",
"+. c #8D4C26",
"@. c #834629",
"#. c #82492C",
"$. c #8E4C2B",
"%. c #8E472B",
"&. c #924624",
"*. c #9C4625",
"=. c #944B25",
"-. c #9A4A24",
";. c #93472A",
":. c #934C2B",
">. c #994B2C",
",. c #8C502E",
"<. c #85512C",
"1. c #92502C",
"2. c #9A512C",
"3. c #834D31",
"4. c #8E4D32",
"5. c #884E38",
"6. c #944D31",
"7. c #9A4E31",
"8. c #8D5235",
"9. c #8C5439",
"0. c #865539",
"q. c #925133",
"w. c #92553A",
"e. c #9C5D3B",
"r. c #995733",
"t. c #A54D23",
"y. c #A64C24",
"u. c #A65123",
"i. c #AA5324",
"p. c #A5562C",
"a. c #AB5529",
"s. c #A95829",
"d. c #B0592C",
"f. c #B15427",
"g. c #A65B37",
"h. c #9D623D",
"j. c #96673D",
"k. c #A2633D",
"l. c #A76538",
"z. c #B5633C",
"x. c #B3663A",
"c. c #8D5C45",
"v. c #845E49",
"b. c #905D48",
"n. c #965D44",
"m. c #82634E",
"M. c #9A6646",
"N. c #9D6951",
"B. c #A46441",
"V. c #AC6644",
"C. c #AE6A46",
"Z. c #AE6A4B",
"A. c #AE674B",
"S. c #B36543",
"D. c #B46A44",
"F. c #B26C4A",
"G. c #B6734C",
"H. c #B26D50",
"J. c #A07354",
"K. c #B47352",
"L. c #BD7655",
"P. c #BC7B53",
"I. c #BB7C5B",
"U. c #A87C64",
"Y. c #B47E63",
"T. c #B97F67",
"R. c #C97B4C",
"E. c #D57A47",
"W. c #DA7A47",
"Q. c #D67B4A",
"!. c #DA7C49",
"~. c #D47644",
"^. c #C47C53",
"/. c #CA7E53",
"(. c #C77956",
"). c #DA7F51",
"_. c #D27F5A",
"`. c #E07A49",
"'. c #B2825C",
"]. c #B58162",
"[. c #B98264",
"{. c #B88169",
"}. c #B6856A",
"|. c #A08073",
" X c #BC9878",
".X c #AA896A",
"XX c #C8804E",
"oX c #CA8153",
"OX c #CA815B",
"+X c #C18757",
"@X c #D38356",
"#X c #CA8964",
"$X c #D38D66",
"%X c #D09367",
"&X c #CC9571",
"*X c #EB966B",
"=X c #EB9B6B",
"-X c #ED9464",
";X c #F29565",
":X c #F19463",
">X c #F29866",
",X c #F69865",
"<X c #F29468",
"1X c #F3986A",
"2X c #E29A74",
"3X c #B79480",
"4X c #DFB28B",
"5X c #EBAE82",
"6X c #DFC4B1",
"7X c #FFD6A4",
"8X c #E0C6B7",
"9X c #FFE3B8",
"0X c #D0C7C2",
"qX c #F4DBCB",
"wX c #FFE0C3",
"eX c #FFFBDB",
"rX c #FFF6DF",
"tX c #FFFBEC",
"yX c #FFF7EF",
"uX c #FFFCF3",
/* pixels */
"2X$X*X<X:X,X-X1X<X;X;X:X;X;X<X<X:X:X-X*X*X*X=X7XeXeX X%X=X1X;X:X;X;X;X>X>X>X>X>X>X>X>X>X>X>X>X=X5X9X",
"M [ g.d.i.d.a.a.a.a.a.a.a.a.a.a.i.i.a.a.p.p.a.#X_ T m r.g.a.a.d.a.a.a.a.a.a.a.a.a.a.a.a.a.a.a.p.l.%X",
"d Q 1.&.{ } =.=.=.=.=.=.=.=.=.=.-.-.-.>.>.*.-.P.g X c 8.:.*.-.&.=.=.=.=.=.=.=.=.=.=.=.=.=.=.=.=.u.Q.",
"b ^ $.:.>.=.:.$.:.:.>.=.=.:.:.:.=.=.>.:.>.>.-.L.z ; H #.:.7.=.=.:.:.:.:.:.:.:.:.:.:.:.:.:.:.:.-.f.`.",
"x ^ 4.>.2.=.:.:.:.:.>.>.:.:.:.:.:.:.:.=.>.>.y.(.n ; v 3.6.7.=.7.:.:.:.:.6.:.:.:.:.:.:.:.:.:.:.-.i.W.",
"b 3.6.=.=.=.:.:.=.=.>.=.:.:.:.:.:.1.:.:.>.>.y.(.n ; b w.$.:.:.:.:.:.:.:.:.:.:.>.:.:.:.=.:.:.:.-.i.!.",
"x ~ $.=.>.2.1.$.:.:.=.=.+.+.:.:.$.1.:.:.>.-...^.c & v 8.O.:.q.%.:.:.:.:.:.:.:.:.:.:.:.:.:.:.:.=.i.!.",
"v Q $.=.=.=.+.$.:.:.=.=.=.=.:.:.+.$.:.:.=.-.| P.c & d $.1.:.:.1.:.:.:.:.:.:.:.:.:.:.:.:.:.:.:.=.i.Q.",
"v ~ 6.=.&.&.r.%.=.=.=.=.=.=.:.:.:.$.$.:.:.=.| P.j & v #.$.:.%.1.>.>.>.>.>.>.=.=.=.:.=.=.=.=.=.-.i.Q.",
"x ~ 6.=.>.=.+.:.:.=.=.=.=.=.:.:.:.:.:.:.%.=.-.P.j = V $.:.7.:.:.>.>.>.>.>.>.=.=.>.>.>.=.>.>.>.-.a.!.",
"N #.:.&.=.2.+.$.:.:.:.=.=.:.:.=.=.=.:.:.:.=.| P.u & V $.:.>.=.:.>.=.:.=.:.=.:.=.=.=.=.=.=.=.=.=.u.W.",
"d Q q.1.=.=.$.1.$.$.:.$.$.$.:.=.>.;.=.:.:.>.| P.c & N 4.:.>.:.:.:.:.:.:.:.:.:.:.1.:.:.:.:.2.:.=.u.!.",
"b ~ $.:.=.O.$.$.$.$.%.%.%.%.%.:.:.O.%.:.:.:.} P.j & v $.6.;.%.%.%.%.%.%.%.%.%.%.$.$.$.$.$.$.$.=.X.W.",
"c ) w.$.q.q.9.9.9.9.8.8.8.8.q.q.q.8.9.w.4.4.2.I.z : b 5.w.q.8.9.9.9.8.8.q.8.q.8.8.8.8.8.8.8.8.$.g./.",
"/ z ! K C Z J L J L K K K K K K K K J L J K A 3.7 , l L K K K E K L K K K K K K L K L L L K L K Z Y.",
"qXD - w r 9 9 0 0 0 9 9 > > 0 9 9 y - 0 0 q e w : , > 0 9 9 9 9 9 0 0 0 0 0 0 0 9 9 9 9 9 9 9 9 F qX",
"tXF . + * + + + + * @ & , , & + + + + + + + + + O O O + + + + + O + + O # % : # * + + + + * + . / tX",
"6XU.Y.[.'.'.[.T.{.{.].u $ $ v.}.Y.].].].].].].].].].].].].].].].].].Y.Y.z 4 # m.}.[.Y.].].[.[.U. XrX",
"R 9.K.D.l.D.F.D.C.V.$XM.o g 9.F.C.F.F.F.F.F.F.F.F.F.F.F.F.F.F.F.H.K.V.#Xc.@ y 0.K.F.F.F.C.F.F.D.G.2X",
"p Q =.] } } { { &.' x.k.& y S =.] { { { { { { { { { { { { { { { O.] ' D.n.+ a C :.{ &.{ ] ] &.{ t.~.",
"N #.$.=.=.=.=.>.:.&.D.e.& t P =.=.=.=.=.=.=.=.=.>.>.=.=.=.=.=.=.>.2.-.C.9.* r W 1.=.=.=.=.=.=.=.u.!.",
"x ^ 4.:.=.=.:.:.:.&.S.B.  5 Q 6.:.:.:.:.:.:.:.:.:.:.:.:.:.:.:.:.=.>.] C.M.. f K :.=.:.:.=.=.:.=.i.E.",
"x ( 8.:.+.>.:.%.:.:.S.n.= 5 K 6.:.:.:.:.:.:.:.:.:.:.:.:.:.:.:.:.:.:.O.H.b.O q W q.:.:.:.$.$.:.=.i.~.",
"v ^ $.:.=.=.;.6.:.O.S.B.X g P 6.:.:.:.:.:.:.:.:.:.:.:.:.:.:.:.:.:.:.&.A.c.+ q ! q.:.:.:.$.$.:.=.a.E.",
"B Q $.:.=.=.>.:.:.O.z.k.# 3 P :.:.:.=.:.=.=.=.=.=.=.=.=.=.=.=.=.=.=.&.F.b.+ r W :.:.:.:.:.:.=.=.u.Q.",
"B @.q.:.=.=.=.:.:.] z.g.# g P :.:.:.=.=.=.=.=.=.=.=.=.=.=.=.=.=.=.=.&.D.n.+ a W :.=.:.:.=.:.:.=.u.Q.",
"v ~ 4.$.$.:.:.$.:.O.S.k.o 3 P q.$.:.:.:.:.:.:.:.:.:.:.:.:.:.:.:.=.=.&.V.c.O y K 1.:.:.:.$.$.$.=.u.Q.",
"v ~ 4.$.$.$.q.6.:.=.D.k.# 5 P q.$.$.:.$.:.$.:.$.:.$.$.$.:.$.:.$.:.>.=.C.c.O y E ,.=.:.$.$.+.$.&.u.Q.",
"v ~ 6.:.+.+.$.:.=.&.x.r.& g P q.$.:.:.:.:.:.:.:.:.:.:.:.:.:.:.:.:.:.&.Z.b.O y ! q.:.6.:.$.:.6.=.u.Q.",
"v ~ 6.:.,.$.6.:.=.=.x.e.O 5 K q.%.%.:.%.:.%.:.%.:.%.:.%.:.$.:.%.:.:.&.Z.b.O y ! 4.%.:.:.%.$.:.&.t.Q.",
"N ~ 4.6.,.<.4.6.:.=.D.h.& g K 8.q.q.:.q.6.q.6.q.q.q.q.q.q.q.q.q.:.:.&.Z.c.& h R q.6.6.q.q.q.q.:.a.).",
"n L I W ! W W I Q A w.3.o 6 H ! W W P P P P P W I I W W P P W W W W A 9._ o t H W P P W W W ~ P o.F.",
"0X8 6 l > g 5 k l l g > : 1 5 k 5 3 g t h y t g 2 8 k 6 l t g 3 5 g g 5 1 1 1 5 k k k g g l k 2 D 8X",
"uXG   o @ O o o o o o o o o o o o o O O o . # X , < $ # o o o o o o o o o o o o o o o o o o o   T tX",
"wXJ.e.k.k.k.h.h.k.k.k.k.k.k.k.k.g.B.B.n.h.M.j.Y # & c M.B.V.g.V.B.k.k.k.k.k.B.k.B.k.B.k.B.B.B.j..XeX",
"<.M.OX/.@XoX/.oX/./././.XXoX/./._./._.#XOX+X+X#Xi - C I.OX_.(._./././././.oX/./.oX/./././.oXoX^.#X4X",
"p Q $.` ] ] [ O.O.O.] ] ] ] O.O.O.' O.O.O.` +.I.c * x $.o.O.O.O.O.] ] ] ] ] ] ] ] ] ] ] ] ] ] ] -.R.",
"v ~ 4.:.>.>.1.%.:.:.:.:.:.$.:.:.$.1.7.;.6.7.=.L.n * N 4.$.$.:.:.:.:.:.:.:.:.:.:.:.:.:.:.:.:.:.=...!.",
"v ^ q.:.O.&.1.q.:.:.:.:.:.:.:.:.+.+.=.=.>.=. .(.x O B 6.1.+.+.1.:.:.:.:.:.:.:.:.:.:.:.:.:.:.:.=.i.~.",
"v ^ 4.:.>.:.%.$.6.:.:.:.:.$.:.:.+.:.=.>.=.=.y.L.c * N 4.+.1.+.+.:.:.:.:.:.:.:.:.:.:.:.:.:.:.:.=.X.!.",
"x ^ 4.:.=.:.$.$.:.:.:.:.:.$.:.:.$.%.:.:.$.$.-.P.j & b 4.,.$.$.$.:.:.:.:.:.:.:.:.:.:.:.:.:.:.:.=.u.Q.",
"x ~ 6.:.=.=.:.$.:.=.=.=.=.:.:.:.:.:.6.6.$.$.-.I.j # b 4.4.$.:.:.:.:.=.:.:.:.:.:.:.:.=.:.:.:.=.=.u.Q.",
"d ~ :.=.=.=.=.:.=.=.=.=.=.=.=.=.:.:.:.:.:.=.-.L.j & b 4.$.:.:.=.=.=.=.=.=.=.=.=.=.=.=.=.=.>.=.=.u.Q.",
"d ~ :.=.=.=.=.:.:.=.=.=.=.=.=.=.>.:.:.:.=.=.*.(.j & b 4.:.=.:.:.=.=.=.=.=.=.=.=.=.>.>.=.=.>.=.=.u.Q.",
"v ^ 4.:.=.:.:.$.6.:.=.:.:.$.:.:.>.=.6.:.:.>.-.L.j # b 4.:.=.=.=.:.:.:.:.:.:.:.:.:.:.:.:.:.:.:.=.u.!.",
"v ) 4.:.:.:.:.$.$.:.:.:.%.%.$.:.:.:.:.:.:.=.-.L.j # v 4.:.:.=.>.:.:.:.:.:.%.:.:.:.:.:.:.:.:.:.=.i.!.",
"x ^ 4.;.;.;.%.%.:.:.:.=.:.:.:.:.+.+.$.:.:.-.-.L.j = b 3.:.=.:.:.:.:.:.:.:.:.:.:.:.:.:.:.:.:.:.=.t.Q.",
"v ( 4.:.:.:.$.4.$.$.:.:.$.$.$.$.,.,.4.4.:.>.>.I.t # n 0.q.1.,.$.$.:.:.:.$.$.$.$.q.6.:.:.:.q.:.:.p.@X",
"c L ( W Q #.~ ~ ~ ~ ^ ~ ^ ~ ^ ~ ~ ^ W ^ W #.o.N./ D l ! 3.W ~ ~ ~ ~ ~ ^ ^ ^ ^ ~ ~ ~ ~ ~ ~ ~ ~ Q @.K.",
"3Xh q b x s d d a a s x s s a a a x x s p a s U.tXyX|.q p s x x a a a a s s s s s s s s s s s s B &X"
};
